<mxfile host="Electron" agent="Mozilla/5.0 (Macintosh; Intel Mac OS X 10_15_7) AppleWebKit/537.36 (KHTML, like Gecko) draw.io/26.1.1 Chrome/132.0.6834.210 Electron/34.3.3 Safari/537.36" version="26.1.1">
  <diagram name="Page-1" id="ypwdO3c8HS_VkOCJP_hb">
    <mxGraphModel dx="430" dy="387" grid="1" gridSize="10" guides="1" tooltips="1" connect="1" arrows="1" fold="1" page="1" pageScale="1" pageWidth="850" pageHeight="1100" math="0" shadow="0">
      <root>
        <mxCell id="0" />
        <mxCell id="1" parent="0" />
        <mxCell id="AGzMQhdN4DI56FehoSiP-1" value="STUDENT" style="rounded=0;whiteSpace=wrap;html=1;" vertex="1" parent="1">
          <mxGeometry x="300" y="280" width="125" height="40" as="geometry" />
        </mxCell>
        <mxCell id="AGzMQhdN4DI56FehoSiP-2" value="" style="endArrow=none;html=1;rounded=0;entryX=0.9;entryY=0.704;entryDx=0;entryDy=0;entryPerimeter=0;" edge="1" parent="1" target="AGzMQhdN4DI56FehoSiP-4">
          <mxGeometry width="50" height="50" relative="1" as="geometry">
            <mxPoint x="300" y="300" as="sourcePoint" />
            <mxPoint x="240" y="250" as="targetPoint" />
          </mxGeometry>
        </mxCell>
        <mxCell id="AGzMQhdN4DI56FehoSiP-4" value="&lt;u&gt;StudentID&lt;/u&gt;" style="ellipse;whiteSpace=wrap;html=1;" vertex="1" parent="1">
          <mxGeometry x="150" y="230" width="95" height="40" as="geometry" />
        </mxCell>
        <mxCell id="AGzMQhdN4DI56FehoSiP-6" value="" style="endArrow=none;html=1;rounded=0;entryX=0.719;entryY=0.94;entryDx=0;entryDy=0;entryPerimeter=0;" edge="1" parent="1" target="AGzMQhdN4DI56FehoSiP-8">
          <mxGeometry width="50" height="50" relative="1" as="geometry">
            <mxPoint x="310" y="280" as="sourcePoint" />
            <mxPoint x="277.5" y="240" as="targetPoint" />
          </mxGeometry>
        </mxCell>
        <mxCell id="AGzMQhdN4DI56FehoSiP-7" value="" style="endArrow=none;html=1;rounded=0;entryX=0.569;entryY=0.999;entryDx=0;entryDy=0;entryPerimeter=0;" edge="1" parent="1" target="AGzMQhdN4DI56FehoSiP-9">
          <mxGeometry width="50" height="50" relative="1" as="geometry">
            <mxPoint x="315" y="280" as="sourcePoint" />
            <mxPoint x="310" y="180" as="targetPoint" />
          </mxGeometry>
        </mxCell>
        <mxCell id="AGzMQhdN4DI56FehoSiP-8" value="FName" style="ellipse;whiteSpace=wrap;html=1;" vertex="1" parent="1">
          <mxGeometry x="170" y="180" width="80" height="40" as="geometry" />
        </mxCell>
        <mxCell id="AGzMQhdN4DI56FehoSiP-9" value="LName" style="ellipse;whiteSpace=wrap;html=1;" vertex="1" parent="1">
          <mxGeometry x="190" y="120" width="70" height="40" as="geometry" />
        </mxCell>
        <mxCell id="AGzMQhdN4DI56FehoSiP-10" value="" style="endArrow=none;html=1;rounded=0;exitX=0.324;exitY=-0.008;exitDx=0;exitDy=0;exitPerimeter=0;" edge="1" parent="1" source="AGzMQhdN4DI56FehoSiP-1" target="AGzMQhdN4DI56FehoSiP-11">
          <mxGeometry width="50" height="50" relative="1" as="geometry">
            <mxPoint x="365" y="270" as="sourcePoint" />
            <mxPoint x="341" y="200" as="targetPoint" />
          </mxGeometry>
        </mxCell>
        <mxCell id="AGzMQhdN4DI56FehoSiP-11" value="Gender" style="ellipse;whiteSpace=wrap;html=1;" vertex="1" parent="1">
          <mxGeometry x="270" y="130" width="70" height="40" as="geometry" />
        </mxCell>
        <mxCell id="AGzMQhdN4DI56FehoSiP-12" value="" style="endArrow=none;html=1;rounded=0;entryX=0.5;entryY=1;entryDx=0;entryDy=0;" edge="1" parent="1" target="AGzMQhdN4DI56FehoSiP-13">
          <mxGeometry width="50" height="50" relative="1" as="geometry">
            <mxPoint x="360" y="279" as="sourcePoint" />
            <mxPoint x="370" y="210" as="targetPoint" />
          </mxGeometry>
        </mxCell>
        <mxCell id="AGzMQhdN4DI56FehoSiP-13" value="Birthday" style="ellipse;whiteSpace=wrap;html=1;" vertex="1" parent="1">
          <mxGeometry x="325" y="170" width="75" height="40" as="geometry" />
        </mxCell>
        <mxCell id="AGzMQhdN4DI56FehoSiP-14" value="TEACHINGSTAFF" style="rounded=0;whiteSpace=wrap;html=1;" vertex="1" parent="1">
          <mxGeometry x="655" y="280" width="170" height="40" as="geometry" />
        </mxCell>
        <mxCell id="AGzMQhdN4DI56FehoSiP-15" value="" style="endArrow=none;html=1;rounded=0;exitX=0.12;exitY=0;exitDx=0;exitDy=0;exitPerimeter=0;" edge="1" parent="1">
          <mxGeometry width="50" height="50" relative="1" as="geometry">
            <mxPoint x="685" y="280" as="sourcePoint" />
            <mxPoint x="665" y="220" as="targetPoint" />
          </mxGeometry>
        </mxCell>
        <mxCell id="AGzMQhdN4DI56FehoSiP-16" value="&lt;u&gt;TeacherID&lt;/u&gt;" style="ellipse;whiteSpace=wrap;html=1;" vertex="1" parent="1">
          <mxGeometry x="620" y="180" width="100" height="40" as="geometry" />
        </mxCell>
        <mxCell id="AGzMQhdN4DI56FehoSiP-20" value="" style="endArrow=none;html=1;rounded=0;exitX=0.376;exitY=-0.017;exitDx=0;exitDy=0;exitPerimeter=0;entryX=0.36;entryY=0.983;entryDx=0;entryDy=0;entryPerimeter=0;" edge="1" parent="1" source="AGzMQhdN4DI56FehoSiP-14" target="AGzMQhdN4DI56FehoSiP-22">
          <mxGeometry width="50" height="50" relative="1" as="geometry">
            <mxPoint x="771.25" y="180" as="sourcePoint" />
            <mxPoint x="739" y="200" as="targetPoint" />
          </mxGeometry>
        </mxCell>
        <mxCell id="AGzMQhdN4DI56FehoSiP-22" value="FName" style="ellipse;whiteSpace=wrap;html=1;" vertex="1" parent="1">
          <mxGeometry x="710" y="140" width="100" height="40" as="geometry" />
        </mxCell>
        <mxCell id="AGzMQhdN4DI56FehoSiP-23" value="LName" style="ellipse;whiteSpace=wrap;html=1;" vertex="1" parent="1">
          <mxGeometry x="810" y="160" width="100" height="40" as="geometry" />
        </mxCell>
        <mxCell id="AGzMQhdN4DI56FehoSiP-25" value="" style="endArrow=none;html=1;rounded=0;exitX=0.355;exitY=-0.026;exitDx=0;exitDy=0;exitPerimeter=0;" edge="1" parent="1">
          <mxGeometry width="50" height="50" relative="1" as="geometry">
            <mxPoint x="745" y="280" as="sourcePoint" />
            <mxPoint x="835" y="230" as="targetPoint" />
          </mxGeometry>
        </mxCell>
        <mxCell id="AGzMQhdN4DI56FehoSiP-26" value="Role" style="ellipse;whiteSpace=wrap;html=1;" vertex="1" parent="1">
          <mxGeometry x="825" y="210" width="95" height="40" as="geometry" />
        </mxCell>
        <mxCell id="AGzMQhdN4DI56FehoSiP-27" value="CLASS" style="rounded=0;whiteSpace=wrap;html=1;" vertex="1" parent="1">
          <mxGeometry x="450" y="420" width="125" height="40" as="geometry" />
        </mxCell>
        <mxCell id="AGzMQhdN4DI56FehoSiP-28" value="" style="endArrow=none;html=1;rounded=0;exitX=0.12;exitY=0;exitDx=0;exitDy=0;exitPerimeter=0;" edge="1" parent="1">
          <mxGeometry width="50" height="50" relative="1" as="geometry">
            <mxPoint x="490" y="460" as="sourcePoint" />
            <mxPoint x="470" y="490" as="targetPoint" />
          </mxGeometry>
        </mxCell>
        <mxCell id="AGzMQhdN4DI56FehoSiP-29" value="ClassID" style="ellipse;whiteSpace=wrap;html=1;" vertex="1" parent="1">
          <mxGeometry x="410" y="490" width="100" height="40" as="geometry" />
        </mxCell>
        <mxCell id="AGzMQhdN4DI56FehoSiP-30" value="" style="endArrow=none;html=1;rounded=0;exitX=0.12;exitY=0;exitDx=0;exitDy=0;exitPerimeter=0;" edge="1" parent="1">
          <mxGeometry width="50" height="50" relative="1" as="geometry">
            <mxPoint x="522.5" y="460" as="sourcePoint" />
            <mxPoint x="550" y="490" as="targetPoint" />
          </mxGeometry>
        </mxCell>
        <mxCell id="AGzMQhdN4DI56FehoSiP-31" value="ClassName" style="ellipse;whiteSpace=wrap;html=1;" vertex="1" parent="1">
          <mxGeometry x="525" y="480" width="100" height="40" as="geometry" />
        </mxCell>
        <mxCell id="AGzMQhdN4DI56FehoSiP-32" value="" style="endArrow=none;html=1;rounded=0;exitX=0.5;exitY=1;exitDx=0;exitDy=0;" edge="1" parent="1" source="AGzMQhdN4DI56FehoSiP-14">
          <mxGeometry width="50" height="50" relative="1" as="geometry">
            <mxPoint x="685" y="370" as="sourcePoint" />
            <mxPoint x="670" y="360" as="targetPoint" />
          </mxGeometry>
        </mxCell>
        <mxCell id="AGzMQhdN4DI56FehoSiP-33" value="TEACHES" style="rhombus;whiteSpace=wrap;html=1;fillColor=#E6E6E6;" vertex="1" parent="1">
          <mxGeometry x="600" y="340" width="90" height="60" as="geometry" />
        </mxCell>
        <mxCell id="AGzMQhdN4DI56FehoSiP-34" value="" style="endArrow=none;html=1;rounded=0;exitX=0.176;exitY=0.658;exitDx=0;exitDy=0;exitPerimeter=0;" edge="1" parent="1" source="AGzMQhdN4DI56FehoSiP-33">
          <mxGeometry width="50" height="50" relative="1" as="geometry">
            <mxPoint x="595" y="380" as="sourcePoint" />
            <mxPoint x="525" y="420" as="targetPoint" />
          </mxGeometry>
        </mxCell>
        <mxCell id="AGzMQhdN4DI56FehoSiP-35" value="1" style="text;html=1;align=center;verticalAlign=middle;whiteSpace=wrap;rounded=0;" vertex="1" parent="1">
          <mxGeometry x="515" y="380" width="60" height="30" as="geometry" />
        </mxCell>
        <mxCell id="AGzMQhdN4DI56FehoSiP-36" value="1" style="text;html=1;align=center;verticalAlign=middle;whiteSpace=wrap;rounded=0;" vertex="1" parent="1">
          <mxGeometry x="660" y="320" width="60" height="30" as="geometry" />
        </mxCell>
        <mxCell id="AGzMQhdN4DI56FehoSiP-37" value="" style="endArrow=none;html=1;rounded=0;entryX=0;entryY=1;entryDx=0;entryDy=0;" edge="1" parent="1" target="AGzMQhdN4DI56FehoSiP-33">
          <mxGeometry width="50" height="50" relative="1" as="geometry">
            <mxPoint x="540" y="420" as="sourcePoint" />
            <mxPoint x="590" y="370" as="targetPoint" />
          </mxGeometry>
        </mxCell>
        <mxCell id="AGzMQhdN4DI56FehoSiP-38" value="BELONGS" style="rhombus;whiteSpace=wrap;html=1;fillColor=#E6E6E6;" vertex="1" parent="1">
          <mxGeometry x="380" y="340" width="90" height="60" as="geometry" />
        </mxCell>
        <mxCell id="AGzMQhdN4DI56FehoSiP-39" value="" style="endArrow=none;html=1;rounded=0;exitX=0;exitY=0;exitDx=0;exitDy=0;" edge="1" parent="1" source="AGzMQhdN4DI56FehoSiP-38">
          <mxGeometry width="50" height="50" relative="1" as="geometry">
            <mxPoint x="320" y="370" as="sourcePoint" />
            <mxPoint x="370" y="320" as="targetPoint" />
          </mxGeometry>
        </mxCell>
        <mxCell id="AGzMQhdN4DI56FehoSiP-40" value="N" style="text;html=1;align=center;verticalAlign=middle;whiteSpace=wrap;rounded=0;" vertex="1" parent="1">
          <mxGeometry x="370" y="320" width="60" height="30" as="geometry" />
        </mxCell>
        <mxCell id="AGzMQhdN4DI56FehoSiP-41" value="" style="endArrow=none;html=1;rounded=0;exitX=0.321;exitY=-0.016;exitDx=0;exitDy=0;exitPerimeter=0;entryX=0.73;entryY=0.755;entryDx=0;entryDy=0;entryPerimeter=0;" edge="1" parent="1" source="AGzMQhdN4DI56FehoSiP-27" target="AGzMQhdN4DI56FehoSiP-38">
          <mxGeometry width="50" height="50" relative="1" as="geometry">
            <mxPoint x="531" y="350" as="sourcePoint" />
            <mxPoint x="440" y="391" as="targetPoint" />
          </mxGeometry>
        </mxCell>
        <mxCell id="AGzMQhdN4DI56FehoSiP-42" value="" style="endArrow=none;html=1;rounded=0;exitX=0.321;exitY=-0.016;exitDx=0;exitDy=0;exitPerimeter=0;entryX=0.684;entryY=0.815;entryDx=0;entryDy=0;entryPerimeter=0;" edge="1" parent="1" target="AGzMQhdN4DI56FehoSiP-38">
          <mxGeometry width="50" height="50" relative="1" as="geometry">
            <mxPoint x="482" y="420" as="sourcePoint" />
            <mxPoint x="438" y="386" as="targetPoint" />
          </mxGeometry>
        </mxCell>
        <mxCell id="AGzMQhdN4DI56FehoSiP-43" value="1" style="text;html=1;align=center;verticalAlign=middle;whiteSpace=wrap;rounded=0;" vertex="1" parent="1">
          <mxGeometry x="445" y="380" width="60" height="30" as="geometry" />
        </mxCell>
        <mxCell id="AGzMQhdN4DI56FehoSiP-44" value="SUBJECT" style="rounded=0;whiteSpace=wrap;html=1;" vertex="1" parent="1">
          <mxGeometry x="190" y="420" width="125" height="40" as="geometry" />
        </mxCell>
        <mxCell id="AGzMQhdN4DI56FehoSiP-45" value="" style="endArrow=none;html=1;rounded=0;" edge="1" parent="1">
          <mxGeometry width="50" height="50" relative="1" as="geometry">
            <mxPoint x="200" y="500" as="sourcePoint" />
            <mxPoint x="237.5" y="460" as="targetPoint" />
          </mxGeometry>
        </mxCell>
        <mxCell id="AGzMQhdN4DI56FehoSiP-46" value="" style="endArrow=none;html=1;rounded=0;exitX=0.5;exitY=0;exitDx=0;exitDy=0;" edge="1" parent="1" source="AGzMQhdN4DI56FehoSiP-48">
          <mxGeometry width="50" height="50" relative="1" as="geometry">
            <mxPoint x="250" y="500" as="sourcePoint" />
            <mxPoint x="250" y="460" as="targetPoint" />
          </mxGeometry>
        </mxCell>
        <mxCell id="AGzMQhdN4DI56FehoSiP-47" value="&lt;u&gt;SubjectID&lt;/u&gt;" style="ellipse;whiteSpace=wrap;html=1;" vertex="1" parent="1">
          <mxGeometry x="140" y="500" width="95" height="40" as="geometry" />
        </mxCell>
        <mxCell id="AGzMQhdN4DI56FehoSiP-48" value="SubjectName" style="ellipse;whiteSpace=wrap;html=1;" vertex="1" parent="1">
          <mxGeometry x="260" y="500" width="95" height="40" as="geometry" />
        </mxCell>
        <mxCell id="AGzMQhdN4DI56FehoSiP-49" value="" style="endArrow=none;html=1;rounded=0;" edge="1" parent="1">
          <mxGeometry width="50" height="50" relative="1" as="geometry">
            <mxPoint x="227.5" y="420" as="sourcePoint" />
            <mxPoint x="260" y="390" as="targetPoint" />
          </mxGeometry>
        </mxCell>
        <mxCell id="AGzMQhdN4DI56FehoSiP-50" value="HAS" style="rhombus;whiteSpace=wrap;html=1;fillColor=#E6E6E6;" vertex="1" parent="1">
          <mxGeometry x="235" y="350" width="90" height="60" as="geometry" />
        </mxCell>
        <mxCell id="AGzMQhdN4DI56FehoSiP-51" value="" style="endArrow=none;html=1;rounded=0;exitX=0.657;exitY=0.183;exitDx=0;exitDy=0;exitPerimeter=0;" edge="1" parent="1" source="AGzMQhdN4DI56FehoSiP-50">
          <mxGeometry width="50" height="50" relative="1" as="geometry">
            <mxPoint x="299" y="360" as="sourcePoint" />
            <mxPoint x="342.5" y="320" as="targetPoint" />
          </mxGeometry>
        </mxCell>
        <mxCell id="AGzMQhdN4DI56FehoSiP-53" value="N" style="text;html=1;align=center;verticalAlign=middle;whiteSpace=wrap;rounded=0;" vertex="1" parent="1">
          <mxGeometry x="310" y="330" width="60" height="30" as="geometry" />
        </mxCell>
        <mxCell id="AGzMQhdN4DI56FehoSiP-55" value="N" style="text;html=1;align=center;verticalAlign=middle;whiteSpace=wrap;rounded=0;" vertex="1" parent="1">
          <mxGeometry x="190" y="390" width="60" height="30" as="geometry" />
        </mxCell>
        <mxCell id="AGzMQhdN4DI56FehoSiP-56" value="" style="endArrow=none;html=1;rounded=0;exitX=0;exitY=0;exitDx=0;exitDy=0;" edge="1" parent="1" source="AGzMQhdN4DI56FehoSiP-50">
          <mxGeometry width="50" height="50" relative="1" as="geometry">
            <mxPoint x="260" y="365" as="sourcePoint" />
            <mxPoint x="202" y="325" as="targetPoint" />
          </mxGeometry>
        </mxCell>
        <mxCell id="AGzMQhdN4DI56FehoSiP-57" value="Grade" style="ellipse;whiteSpace=wrap;html=1;" vertex="1" parent="1">
          <mxGeometry x="150" y="290" width="95" height="40" as="geometry" />
        </mxCell>
        <mxCell id="AGzMQhdN4DI56FehoSiP-58" value="CLUB" style="rounded=0;whiteSpace=wrap;html=1;" vertex="1" parent="1">
          <mxGeometry x="492.5" y="110" width="125" height="40" as="geometry" />
        </mxCell>
        <mxCell id="AGzMQhdN4DI56FehoSiP-59" value="" style="endArrow=none;html=1;rounded=0;exitX=0.5;exitY=0;exitDx=0;exitDy=0;" edge="1" parent="1" source="AGzMQhdN4DI56FehoSiP-58">
          <mxGeometry width="50" height="50" relative="1" as="geometry">
            <mxPoint x="518" y="110" as="sourcePoint" />
            <mxPoint x="540" y="59" as="targetPoint" />
          </mxGeometry>
        </mxCell>
        <mxCell id="AGzMQhdN4DI56FehoSiP-60" value="" style="endArrow=none;html=1;rounded=0;exitX=0.62;exitY=0;exitDx=0;exitDy=0;exitPerimeter=0;" edge="1" parent="1" source="AGzMQhdN4DI56FehoSiP-58">
          <mxGeometry width="50" height="50" relative="1" as="geometry">
            <mxPoint x="525" y="110" as="sourcePoint" />
            <mxPoint x="610" y="70" as="targetPoint" />
          </mxGeometry>
        </mxCell>
        <mxCell id="AGzMQhdN4DI56FehoSiP-61" value="&lt;u&gt;ClubID&lt;/u&gt;" style="ellipse;whiteSpace=wrap;html=1;" vertex="1" parent="1">
          <mxGeometry x="490" y="20" width="100" height="40" as="geometry" />
        </mxCell>
        <mxCell id="AGzMQhdN4DI56FehoSiP-62" value="ClubName" style="ellipse;whiteSpace=wrap;html=1;" vertex="1" parent="1">
          <mxGeometry x="600" y="40" width="100" height="40" as="geometry" />
        </mxCell>
        <mxCell id="AGzMQhdN4DI56FehoSiP-65" value="" style="endArrow=none;html=1;rounded=0;" edge="1" parent="1">
          <mxGeometry width="50" height="50" relative="1" as="geometry">
            <mxPoint x="425" y="300" as="sourcePoint" />
            <mxPoint x="510" y="250" as="targetPoint" />
          </mxGeometry>
        </mxCell>
        <mxCell id="AGzMQhdN4DI56FehoSiP-66" value="PARTICIPATES" style="rhombus;whiteSpace=wrap;html=1;fillColor=#E6E6E6;" vertex="1" parent="1">
          <mxGeometry x="492.5" y="210" width="117.5" height="60" as="geometry" />
        </mxCell>
        <mxCell id="AGzMQhdN4DI56FehoSiP-67" value="" style="endArrow=none;html=1;rounded=0;exitX=0.5;exitY=0;exitDx=0;exitDy=0;" edge="1" parent="1" source="AGzMQhdN4DI56FehoSiP-66">
          <mxGeometry width="50" height="50" relative="1" as="geometry">
            <mxPoint x="470" y="200" as="sourcePoint" />
            <mxPoint x="555" y="150" as="targetPoint" />
          </mxGeometry>
        </mxCell>
        <mxCell id="AGzMQhdN4DI56FehoSiP-68" value="N" style="text;html=1;align=center;verticalAlign=middle;whiteSpace=wrap;rounded=0;" vertex="1" parent="1">
          <mxGeometry x="432.5" y="285" width="60" height="30" as="geometry" />
        </mxCell>
        <mxCell id="AGzMQhdN4DI56FehoSiP-69" value="1" style="text;html=1;align=center;verticalAlign=middle;whiteSpace=wrap;rounded=0;" vertex="1" parent="1">
          <mxGeometry x="540" y="150" width="60" height="30" as="geometry" />
        </mxCell>
        <mxCell id="AGzMQhdN4DI56FehoSiP-70" value="" style="endArrow=none;html=1;rounded=0;exitX=0.376;exitY=-0.017;exitDx=0;exitDy=0;exitPerimeter=0;" edge="1" parent="1">
          <mxGeometry width="50" height="50" relative="1" as="geometry">
            <mxPoint x="740" y="280" as="sourcePoint" />
            <mxPoint x="820" y="190" as="targetPoint" />
          </mxGeometry>
        </mxCell>
        <mxCell id="AGzMQhdN4DI56FehoSiP-72" value="" style="endArrow=none;html=1;rounded=0;" edge="1" parent="1" target="AGzMQhdN4DI56FehoSiP-73">
          <mxGeometry width="50" height="50" relative="1" as="geometry">
            <mxPoint x="385" y="280" as="sourcePoint" />
            <mxPoint x="470" y="230" as="targetPoint" />
          </mxGeometry>
        </mxCell>
        <mxCell id="AGzMQhdN4DI56FehoSiP-73" value="LEADS" style="rhombus;whiteSpace=wrap;html=1;fillColor=#E6E6E6;" vertex="1" parent="1">
          <mxGeometry x="401.25" y="170" width="88.75" height="60" as="geometry" />
        </mxCell>
        <mxCell id="AGzMQhdN4DI56FehoSiP-74" value="" style="endArrow=none;html=1;rounded=0;entryX=0.8;entryY=0;entryDx=0;entryDy=0;entryPerimeter=0;" edge="1" parent="1" source="AGzMQhdN4DI56FehoSiP-73">
          <mxGeometry width="50" height="50" relative="1" as="geometry">
            <mxPoint x="470" y="220" as="sourcePoint" />
            <mxPoint x="535" y="150" as="targetPoint" />
          </mxGeometry>
        </mxCell>
        <mxCell id="AGzMQhdN4DI56FehoSiP-76" value="1" style="text;html=1;align=center;verticalAlign=middle;whiteSpace=wrap;rounded=0;" vertex="1" parent="1">
          <mxGeometry x="492.5" y="170" width="60" height="30" as="geometry" />
        </mxCell>
        <mxCell id="AGzMQhdN4DI56FehoSiP-77" value="1" style="text;html=1;align=center;verticalAlign=middle;whiteSpace=wrap;rounded=0;" vertex="1" parent="1">
          <mxGeometry x="385" y="250" width="60" height="30" as="geometry" />
        </mxCell>
        <mxCell id="AGzMQhdN4DI56FehoSiP-78" value="" style="endArrow=none;html=1;rounded=0;exitX=0.818;exitY=0.335;exitDx=0;exitDy=0;exitPerimeter=0;entryX=0;entryY=0;entryDx=0;entryDy=0;" edge="1" parent="1" source="AGzMQhdN4DI56FehoSiP-73" target="AGzMQhdN4DI56FehoSiP-69">
          <mxGeometry width="50" height="50" relative="1" as="geometry">
            <mxPoint x="566.75" y="260" as="sourcePoint" />
            <mxPoint x="535.75" y="150" as="targetPoint" />
          </mxGeometry>
        </mxCell>
        <mxCell id="AGzMQhdN4DI56FehoSiP-79" value="" style="endArrow=none;html=1;rounded=0;entryX=0.197;entryY=0.312;entryDx=0;entryDy=0;entryPerimeter=0;exitX=0.5;exitY=1;exitDx=0;exitDy=0;" edge="1" parent="1" source="AGzMQhdN4DI56FehoSiP-1" target="AGzMQhdN4DI56FehoSiP-38">
          <mxGeometry width="50" height="50" relative="1" as="geometry">
            <mxPoint x="355" y="320" as="sourcePoint" />
            <mxPoint x="440" y="270" as="targetPoint" />
          </mxGeometry>
        </mxCell>
        <mxCell id="AGzMQhdN4DI56FehoSiP-80" value="" style="endArrow=none;html=1;rounded=0;exitX=0.284;exitY=0.751;exitDx=0;exitDy=0;exitPerimeter=0;" edge="1" parent="1" source="AGzMQhdN4DI56FehoSiP-50">
          <mxGeometry width="50" height="50" relative="1" as="geometry">
            <mxPoint x="291" y="460" as="sourcePoint" />
            <mxPoint x="235" y="420" as="targetPoint" />
          </mxGeometry>
        </mxCell>
        <mxCell id="AGzMQhdN4DI56FehoSiP-81" value="" style="endArrow=none;html=1;rounded=0;exitX=0.284;exitY=0.751;exitDx=0;exitDy=0;exitPerimeter=0;entryX=1;entryY=0;entryDx=0;entryDy=0;" edge="1" parent="1" target="AGzMQhdN4DI56FehoSiP-50">
          <mxGeometry width="50" height="50" relative="1" as="geometry">
            <mxPoint x="351" y="320" as="sourcePoint" />
            <mxPoint x="325" y="345" as="targetPoint" />
          </mxGeometry>
        </mxCell>
        <mxCell id="AGzMQhdN4DI56FehoSiP-82" value="" style="shape=table;startSize=0;container=1;collapsible=0;childLayout=tableLayout;fontSize=16;" vertex="1" parent="1">
          <mxGeometry x="210" y="690" width="888" height="40" as="geometry" />
        </mxCell>
        <mxCell id="AGzMQhdN4DI56FehoSiP-83" value="" style="shape=tableRow;horizontal=0;startSize=0;swimlaneHead=0;swimlaneBody=0;strokeColor=inherit;top=0;left=0;bottom=0;right=0;collapsible=0;dropTarget=0;fillColor=none;points=[[0,0.5],[1,0.5]];portConstraint=eastwest;fontSize=16;" vertex="1" parent="AGzMQhdN4DI56FehoSiP-82">
          <mxGeometry width="888" height="40" as="geometry" />
        </mxCell>
        <mxCell id="AGzMQhdN4DI56FehoSiP-84" value="&lt;u&gt;StudentID&lt;/u&gt;" style="shape=partialRectangle;html=1;whiteSpace=wrap;connectable=0;strokeColor=inherit;overflow=hidden;fillColor=none;top=0;left=0;bottom=0;right=0;pointerEvents=1;fontSize=16;" vertex="1" parent="AGzMQhdN4DI56FehoSiP-83">
          <mxGeometry width="127" height="40" as="geometry">
            <mxRectangle width="127" height="40" as="alternateBounds" />
          </mxGeometry>
        </mxCell>
        <mxCell id="AGzMQhdN4DI56FehoSiP-85" value="FName" style="shape=partialRectangle;html=1;whiteSpace=wrap;connectable=0;strokeColor=inherit;overflow=hidden;fillColor=none;top=0;left=0;bottom=0;right=0;pointerEvents=1;fontSize=16;" vertex="1" parent="AGzMQhdN4DI56FehoSiP-83">
          <mxGeometry x="127" width="126" height="40" as="geometry">
            <mxRectangle width="126" height="40" as="alternateBounds" />
          </mxGeometry>
        </mxCell>
        <mxCell id="AGzMQhdN4DI56FehoSiP-86" value="LName" style="shape=partialRectangle;html=1;whiteSpace=wrap;connectable=0;strokeColor=inherit;overflow=hidden;fillColor=none;top=0;left=0;bottom=0;right=0;pointerEvents=1;fontSize=16;" vertex="1" parent="AGzMQhdN4DI56FehoSiP-83">
          <mxGeometry x="253" width="127" height="40" as="geometry">
            <mxRectangle width="127" height="40" as="alternateBounds" />
          </mxGeometry>
        </mxCell>
        <mxCell id="AGzMQhdN4DI56FehoSiP-97" value="Gender" style="shape=partialRectangle;html=1;whiteSpace=wrap;connectable=0;strokeColor=inherit;overflow=hidden;fillColor=none;top=0;left=0;bottom=0;right=0;pointerEvents=1;fontSize=16;" vertex="1" parent="AGzMQhdN4DI56FehoSiP-83">
          <mxGeometry x="380" width="127" height="40" as="geometry">
            <mxRectangle width="127" height="40" as="alternateBounds" />
          </mxGeometry>
        </mxCell>
        <mxCell id="AGzMQhdN4DI56FehoSiP-98" value="Birthday" style="shape=partialRectangle;html=1;whiteSpace=wrap;connectable=0;strokeColor=inherit;overflow=hidden;fillColor=none;top=0;left=0;bottom=0;right=0;pointerEvents=1;fontSize=16;" vertex="1" parent="AGzMQhdN4DI56FehoSiP-83">
          <mxGeometry x="507" width="127" height="40" as="geometry">
            <mxRectangle width="127" height="40" as="alternateBounds" />
          </mxGeometry>
        </mxCell>
        <mxCell id="AGzMQhdN4DI56FehoSiP-138" value="ClubID" style="shape=partialRectangle;html=1;whiteSpace=wrap;connectable=0;strokeColor=inherit;overflow=hidden;fillColor=none;top=0;left=0;bottom=0;right=0;pointerEvents=1;fontSize=16;" vertex="1" parent="AGzMQhdN4DI56FehoSiP-83">
          <mxGeometry x="634" width="127" height="40" as="geometry">
            <mxRectangle width="127" height="40" as="alternateBounds" />
          </mxGeometry>
        </mxCell>
        <mxCell id="AGzMQhdN4DI56FehoSiP-142" value="ClassID" style="shape=partialRectangle;html=1;whiteSpace=wrap;connectable=0;strokeColor=inherit;overflow=hidden;fillColor=none;top=0;left=0;bottom=0;right=0;pointerEvents=1;fontSize=16;" vertex="1" parent="AGzMQhdN4DI56FehoSiP-83">
          <mxGeometry x="761" width="127" height="40" as="geometry">
            <mxRectangle width="127" height="40" as="alternateBounds" />
          </mxGeometry>
        </mxCell>
        <mxCell id="AGzMQhdN4DI56FehoSiP-96" value="Student" style="text;strokeColor=none;fillColor=none;html=1;fontSize=24;fontStyle=1;verticalAlign=middle;align=center;" vertex="1" parent="1">
          <mxGeometry x="220" y="630" width="100" height="40" as="geometry" />
        </mxCell>
        <mxCell id="AGzMQhdN4DI56FehoSiP-99" value="TeachingStaff" style="text;strokeColor=none;fillColor=none;html=1;fontSize=24;fontStyle=1;verticalAlign=middle;align=center;" vertex="1" parent="1">
          <mxGeometry x="230" y="790" width="100" height="40" as="geometry" />
        </mxCell>
        <mxCell id="AGzMQhdN4DI56FehoSiP-101" value="" style="shape=table;startSize=0;container=1;collapsible=0;childLayout=tableLayout;fontSize=16;" vertex="1" parent="1">
          <mxGeometry x="213" y="840" width="507" height="40" as="geometry" />
        </mxCell>
        <mxCell id="AGzMQhdN4DI56FehoSiP-102" value="" style="shape=tableRow;horizontal=0;startSize=0;swimlaneHead=0;swimlaneBody=0;strokeColor=inherit;top=0;left=0;bottom=0;right=0;collapsible=0;dropTarget=0;fillColor=none;points=[[0,0.5],[1,0.5]];portConstraint=eastwest;fontSize=16;" vertex="1" parent="AGzMQhdN4DI56FehoSiP-101">
          <mxGeometry width="507" height="40" as="geometry" />
        </mxCell>
        <mxCell id="AGzMQhdN4DI56FehoSiP-103" value="&lt;u&gt;TeacherID&lt;/u&gt;" style="shape=partialRectangle;html=1;whiteSpace=wrap;connectable=0;strokeColor=inherit;overflow=hidden;fillColor=none;top=0;left=0;bottom=0;right=0;pointerEvents=1;fontSize=16;" vertex="1" parent="AGzMQhdN4DI56FehoSiP-102">
          <mxGeometry width="127" height="40" as="geometry">
            <mxRectangle width="127" height="40" as="alternateBounds" />
          </mxGeometry>
        </mxCell>
        <mxCell id="AGzMQhdN4DI56FehoSiP-104" value="FName" style="shape=partialRectangle;html=1;whiteSpace=wrap;connectable=0;strokeColor=inherit;overflow=hidden;fillColor=none;top=0;left=0;bottom=0;right=0;pointerEvents=1;fontSize=16;" vertex="1" parent="AGzMQhdN4DI56FehoSiP-102">
          <mxGeometry x="127" width="126" height="40" as="geometry">
            <mxRectangle width="126" height="40" as="alternateBounds" />
          </mxGeometry>
        </mxCell>
        <mxCell id="AGzMQhdN4DI56FehoSiP-105" value="LName" style="shape=partialRectangle;html=1;whiteSpace=wrap;connectable=0;strokeColor=inherit;overflow=hidden;fillColor=none;top=0;left=0;bottom=0;right=0;pointerEvents=1;fontSize=16;" vertex="1" parent="AGzMQhdN4DI56FehoSiP-102">
          <mxGeometry x="253" width="127" height="40" as="geometry">
            <mxRectangle width="127" height="40" as="alternateBounds" />
          </mxGeometry>
        </mxCell>
        <mxCell id="AGzMQhdN4DI56FehoSiP-106" value="Role" style="shape=partialRectangle;html=1;whiteSpace=wrap;connectable=0;strokeColor=inherit;overflow=hidden;fillColor=none;top=0;left=0;bottom=0;right=0;pointerEvents=1;fontSize=16;" vertex="1" parent="AGzMQhdN4DI56FehoSiP-102">
          <mxGeometry x="380" width="127" height="40" as="geometry">
            <mxRectangle width="127" height="40" as="alternateBounds" />
          </mxGeometry>
        </mxCell>
        <mxCell id="AGzMQhdN4DI56FehoSiP-108" value="Class" style="text;strokeColor=none;fillColor=none;html=1;fontSize=24;fontStyle=1;verticalAlign=middle;align=center;" vertex="1" parent="1">
          <mxGeometry x="215" y="930" width="100" height="40" as="geometry" />
        </mxCell>
        <mxCell id="AGzMQhdN4DI56FehoSiP-109" value="" style="shape=table;startSize=0;container=1;collapsible=0;childLayout=tableLayout;fontSize=16;" vertex="1" parent="1">
          <mxGeometry x="220" y="980" width="379" height="40" as="geometry" />
        </mxCell>
        <mxCell id="AGzMQhdN4DI56FehoSiP-110" value="" style="shape=tableRow;horizontal=0;startSize=0;swimlaneHead=0;swimlaneBody=0;strokeColor=inherit;top=0;left=0;bottom=0;right=0;collapsible=0;dropTarget=0;fillColor=none;points=[[0,0.5],[1,0.5]];portConstraint=eastwest;fontSize=16;" vertex="1" parent="AGzMQhdN4DI56FehoSiP-109">
          <mxGeometry width="379" height="40" as="geometry" />
        </mxCell>
        <mxCell id="AGzMQhdN4DI56FehoSiP-111" value="&lt;u&gt;ClassID&lt;/u&gt;" style="shape=partialRectangle;html=1;whiteSpace=wrap;connectable=0;strokeColor=inherit;overflow=hidden;fillColor=none;top=0;left=0;bottom=0;right=0;pointerEvents=1;fontSize=16;" vertex="1" parent="AGzMQhdN4DI56FehoSiP-110">
          <mxGeometry width="127" height="40" as="geometry">
            <mxRectangle width="127" height="40" as="alternateBounds" />
          </mxGeometry>
        </mxCell>
        <mxCell id="AGzMQhdN4DI56FehoSiP-112" value="ClassName" style="shape=partialRectangle;html=1;whiteSpace=wrap;connectable=0;strokeColor=inherit;overflow=hidden;fillColor=none;top=0;left=0;bottom=0;right=0;pointerEvents=1;fontSize=16;" vertex="1" parent="AGzMQhdN4DI56FehoSiP-110">
          <mxGeometry x="127" width="126" height="40" as="geometry">
            <mxRectangle width="126" height="40" as="alternateBounds" />
          </mxGeometry>
        </mxCell>
        <mxCell id="AGzMQhdN4DI56FehoSiP-132" value="TeacherID" style="shape=partialRectangle;html=1;whiteSpace=wrap;connectable=0;strokeColor=inherit;overflow=hidden;fillColor=none;top=0;left=0;bottom=0;right=0;pointerEvents=1;fontSize=16;" vertex="1" parent="AGzMQhdN4DI56FehoSiP-110">
          <mxGeometry x="253" width="126" height="40" as="geometry">
            <mxRectangle width="126" height="40" as="alternateBounds" />
          </mxGeometry>
        </mxCell>
        <mxCell id="AGzMQhdN4DI56FehoSiP-115" value="Subject" style="text;strokeColor=none;fillColor=none;html=1;fontSize=24;fontStyle=1;verticalAlign=middle;align=center;" vertex="1" parent="1">
          <mxGeometry x="213" y="1080" width="100" height="40" as="geometry" />
        </mxCell>
        <mxCell id="AGzMQhdN4DI56FehoSiP-116" value="" style="shape=table;startSize=0;container=1;collapsible=0;childLayout=tableLayout;fontSize=16;" vertex="1" parent="1">
          <mxGeometry x="220" y="1130" width="253" height="40" as="geometry" />
        </mxCell>
        <mxCell id="AGzMQhdN4DI56FehoSiP-117" value="" style="shape=tableRow;horizontal=0;startSize=0;swimlaneHead=0;swimlaneBody=0;strokeColor=inherit;top=0;left=0;bottom=0;right=0;collapsible=0;dropTarget=0;fillColor=none;points=[[0,0.5],[1,0.5]];portConstraint=eastwest;fontSize=16;" vertex="1" parent="AGzMQhdN4DI56FehoSiP-116">
          <mxGeometry width="253" height="40" as="geometry" />
        </mxCell>
        <mxCell id="AGzMQhdN4DI56FehoSiP-118" value="&lt;u&gt;SubjectID&lt;/u&gt;" style="shape=partialRectangle;html=1;whiteSpace=wrap;connectable=0;strokeColor=inherit;overflow=hidden;fillColor=none;top=0;left=0;bottom=0;right=0;pointerEvents=1;fontSize=16;" vertex="1" parent="AGzMQhdN4DI56FehoSiP-117">
          <mxGeometry width="127" height="40" as="geometry">
            <mxRectangle width="127" height="40" as="alternateBounds" />
          </mxGeometry>
        </mxCell>
        <mxCell id="AGzMQhdN4DI56FehoSiP-119" value="SubjectName" style="shape=partialRectangle;html=1;whiteSpace=wrap;connectable=0;strokeColor=inherit;overflow=hidden;fillColor=none;top=0;left=0;bottom=0;right=0;pointerEvents=1;fontSize=16;" vertex="1" parent="AGzMQhdN4DI56FehoSiP-117">
          <mxGeometry x="127" width="126" height="40" as="geometry">
            <mxRectangle width="126" height="40" as="alternateBounds" />
          </mxGeometry>
        </mxCell>
        <mxCell id="AGzMQhdN4DI56FehoSiP-120" value="Club" style="text;strokeColor=none;fillColor=none;html=1;fontSize=24;fontStyle=1;verticalAlign=middle;align=center;" vertex="1" parent="1">
          <mxGeometry x="220" y="1200" width="100" height="40" as="geometry" />
        </mxCell>
        <mxCell id="AGzMQhdN4DI56FehoSiP-121" value="" style="shape=table;startSize=0;container=1;collapsible=0;childLayout=tableLayout;fontSize=16;" vertex="1" parent="1">
          <mxGeometry x="215" y="1250" width="379" height="40" as="geometry" />
        </mxCell>
        <mxCell id="AGzMQhdN4DI56FehoSiP-122" value="" style="shape=tableRow;horizontal=0;startSize=0;swimlaneHead=0;swimlaneBody=0;strokeColor=inherit;top=0;left=0;bottom=0;right=0;collapsible=0;dropTarget=0;fillColor=none;points=[[0,0.5],[1,0.5]];portConstraint=eastwest;fontSize=16;" vertex="1" parent="AGzMQhdN4DI56FehoSiP-121">
          <mxGeometry width="379" height="40" as="geometry" />
        </mxCell>
        <mxCell id="AGzMQhdN4DI56FehoSiP-123" value="&lt;u&gt;ClubID&lt;/u&gt;" style="shape=partialRectangle;html=1;whiteSpace=wrap;connectable=0;strokeColor=inherit;overflow=hidden;fillColor=none;top=0;left=0;bottom=0;right=0;pointerEvents=1;fontSize=16;" vertex="1" parent="AGzMQhdN4DI56FehoSiP-122">
          <mxGeometry width="127" height="40" as="geometry">
            <mxRectangle width="127" height="40" as="alternateBounds" />
          </mxGeometry>
        </mxCell>
        <mxCell id="AGzMQhdN4DI56FehoSiP-124" value="ClubName" style="shape=partialRectangle;html=1;whiteSpace=wrap;connectable=0;strokeColor=inherit;overflow=hidden;fillColor=none;top=0;left=0;bottom=0;right=0;pointerEvents=1;fontSize=16;" vertex="1" parent="AGzMQhdN4DI56FehoSiP-122">
          <mxGeometry x="127" width="126" height="40" as="geometry">
            <mxRectangle width="126" height="40" as="alternateBounds" />
          </mxGeometry>
        </mxCell>
        <mxCell id="AGzMQhdN4DI56FehoSiP-125" value="StudentID" style="shape=partialRectangle;html=1;whiteSpace=wrap;connectable=0;strokeColor=inherit;overflow=hidden;fillColor=none;top=0;left=0;bottom=0;right=0;pointerEvents=1;fontSize=16;" vertex="1" parent="AGzMQhdN4DI56FehoSiP-122">
          <mxGeometry x="253" width="126" height="40" as="geometry">
            <mxRectangle width="126" height="40" as="alternateBounds" />
          </mxGeometry>
        </mxCell>
        <mxCell id="AGzMQhdN4DI56FehoSiP-126" value="" style="endArrow=classic;html=1;rounded=0;" edge="1" parent="1">
          <mxGeometry width="50" height="50" relative="1" as="geometry">
            <mxPoint x="279.68" y="760" as="sourcePoint" />
            <mxPoint x="279.68" y="730" as="targetPoint" />
          </mxGeometry>
        </mxCell>
        <mxCell id="AGzMQhdN4DI56FehoSiP-127" value="" style="endArrow=none;html=1;rounded=0;" edge="1" parent="1">
          <mxGeometry width="50" height="50" relative="1" as="geometry">
            <mxPoint x="280" y="760" as="sourcePoint" />
            <mxPoint x="850" y="760" as="targetPoint" />
          </mxGeometry>
        </mxCell>
        <mxCell id="AGzMQhdN4DI56FehoSiP-128" value="" style="endArrow=none;html=1;rounded=0;" edge="1" parent="1">
          <mxGeometry width="50" height="50" relative="1" as="geometry">
            <mxPoint x="850" y="1320" as="sourcePoint" />
            <mxPoint x="850" y="760" as="targetPoint" />
          </mxGeometry>
        </mxCell>
        <mxCell id="AGzMQhdN4DI56FehoSiP-129" value="" style="endArrow=none;html=1;rounded=0;" edge="1" parent="1">
          <mxGeometry width="50" height="50" relative="1" as="geometry">
            <mxPoint x="520" y="1320" as="sourcePoint" />
            <mxPoint x="850" y="1320" as="targetPoint" />
          </mxGeometry>
        </mxCell>
        <mxCell id="AGzMQhdN4DI56FehoSiP-131" value="" style="endArrow=none;html=1;rounded=0;" edge="1" parent="1">
          <mxGeometry width="50" height="50" relative="1" as="geometry">
            <mxPoint x="520" y="1320" as="sourcePoint" />
            <mxPoint x="520" y="1290" as="targetPoint" />
          </mxGeometry>
        </mxCell>
        <mxCell id="AGzMQhdN4DI56FehoSiP-133" value="" style="endArrow=none;html=1;rounded=0;" edge="1" parent="1">
          <mxGeometry width="50" height="50" relative="1" as="geometry">
            <mxPoint x="520" y="1040" as="sourcePoint" />
            <mxPoint x="760" y="1040" as="targetPoint" />
          </mxGeometry>
        </mxCell>
        <mxCell id="AGzMQhdN4DI56FehoSiP-134" value="" style="endArrow=none;html=1;rounded=0;" edge="1" parent="1">
          <mxGeometry width="50" height="50" relative="1" as="geometry">
            <mxPoint x="520" y="1040" as="sourcePoint" />
            <mxPoint x="520" y="1020" as="targetPoint" />
          </mxGeometry>
        </mxCell>
        <mxCell id="AGzMQhdN4DI56FehoSiP-135" value="" style="endArrow=none;html=1;rounded=0;" edge="1" parent="1">
          <mxGeometry width="50" height="50" relative="1" as="geometry">
            <mxPoint x="760" y="1040" as="sourcePoint" />
            <mxPoint x="759" y="920" as="targetPoint" />
          </mxGeometry>
        </mxCell>
        <mxCell id="AGzMQhdN4DI56FehoSiP-136" value="" style="endArrow=none;html=1;rounded=0;" edge="1" parent="1">
          <mxGeometry width="50" height="50" relative="1" as="geometry">
            <mxPoint x="280" y="920" as="sourcePoint" />
            <mxPoint x="760" y="920" as="targetPoint" />
          </mxGeometry>
        </mxCell>
        <mxCell id="AGzMQhdN4DI56FehoSiP-137" value="" style="endArrow=classic;html=1;rounded=0;" edge="1" parent="1">
          <mxGeometry width="50" height="50" relative="1" as="geometry">
            <mxPoint x="280" y="920" as="sourcePoint" />
            <mxPoint x="280" y="880" as="targetPoint" />
          </mxGeometry>
        </mxCell>
        <mxCell id="AGzMQhdN4DI56FehoSiP-139" value="" style="endArrow=none;html=1;rounded=0;" edge="1" parent="1">
          <mxGeometry width="50" height="50" relative="1" as="geometry">
            <mxPoint x="920" y="1360" as="sourcePoint" />
            <mxPoint x="920" y="730" as="targetPoint" />
          </mxGeometry>
        </mxCell>
        <mxCell id="AGzMQhdN4DI56FehoSiP-140" value="" style="endArrow=none;html=1;rounded=0;" edge="1" parent="1">
          <mxGeometry width="50" height="50" relative="1" as="geometry">
            <mxPoint x="280" y="1360" as="sourcePoint" />
            <mxPoint x="920" y="1360" as="targetPoint" />
          </mxGeometry>
        </mxCell>
        <mxCell id="AGzMQhdN4DI56FehoSiP-141" value="" style="endArrow=classic;html=1;rounded=0;" edge="1" parent="1">
          <mxGeometry width="50" height="50" relative="1" as="geometry">
            <mxPoint x="279" y="1360" as="sourcePoint" />
            <mxPoint x="279.44" y="1290" as="targetPoint" />
          </mxGeometry>
        </mxCell>
        <mxCell id="AGzMQhdN4DI56FehoSiP-143" value="" style="endArrow=none;html=1;rounded=0;" edge="1" parent="1">
          <mxGeometry width="50" height="50" relative="1" as="geometry">
            <mxPoint x="1040" y="1060" as="sourcePoint" />
            <mxPoint x="1040" y="730" as="targetPoint" />
          </mxGeometry>
        </mxCell>
        <mxCell id="AGzMQhdN4DI56FehoSiP-144" value="" style="endArrow=none;html=1;rounded=0;" edge="1" parent="1">
          <mxGeometry width="50" height="50" relative="1" as="geometry">
            <mxPoint x="280" y="1060" as="sourcePoint" />
            <mxPoint x="1040" y="1060" as="targetPoint" />
          </mxGeometry>
        </mxCell>
        <mxCell id="AGzMQhdN4DI56FehoSiP-145" value="" style="endArrow=classic;html=1;rounded=0;" edge="1" parent="1">
          <mxGeometry width="50" height="50" relative="1" as="geometry">
            <mxPoint x="279.71" y="1060" as="sourcePoint" />
            <mxPoint x="279.71" y="1020" as="targetPoint" />
          </mxGeometry>
        </mxCell>
        <mxCell id="AGzMQhdN4DI56FehoSiP-146" value="StudentGrade" style="text;strokeColor=none;fillColor=none;html=1;fontSize=24;fontStyle=1;verticalAlign=middle;align=center;" vertex="1" parent="1">
          <mxGeometry x="245" y="1400" width="100" height="40" as="geometry" />
        </mxCell>
        <mxCell id="AGzMQhdN4DI56FehoSiP-151" value="" style="shape=table;startSize=0;container=1;collapsible=0;childLayout=tableLayout;fontSize=16;" vertex="1" parent="1">
          <mxGeometry x="210" y="1460" width="379" height="40" as="geometry" />
        </mxCell>
        <mxCell id="AGzMQhdN4DI56FehoSiP-152" value="" style="shape=tableRow;horizontal=0;startSize=0;swimlaneHead=0;swimlaneBody=0;strokeColor=inherit;top=0;left=0;bottom=0;right=0;collapsible=0;dropTarget=0;fillColor=none;points=[[0,0.5],[1,0.5]];portConstraint=eastwest;fontSize=16;" vertex="1" parent="AGzMQhdN4DI56FehoSiP-151">
          <mxGeometry width="379" height="40" as="geometry" />
        </mxCell>
        <mxCell id="AGzMQhdN4DI56FehoSiP-153" value="&lt;u&gt;StudentID&lt;/u&gt;" style="shape=partialRectangle;html=1;whiteSpace=wrap;connectable=0;strokeColor=inherit;overflow=hidden;fillColor=none;top=0;left=0;bottom=0;right=0;pointerEvents=1;fontSize=16;" vertex="1" parent="AGzMQhdN4DI56FehoSiP-152">
          <mxGeometry width="127" height="40" as="geometry">
            <mxRectangle width="127" height="40" as="alternateBounds" />
          </mxGeometry>
        </mxCell>
        <mxCell id="AGzMQhdN4DI56FehoSiP-154" value="&lt;u&gt;SubjectID&lt;/u&gt;" style="shape=partialRectangle;html=1;whiteSpace=wrap;connectable=0;strokeColor=inherit;overflow=hidden;fillColor=none;top=0;left=0;bottom=0;right=0;pointerEvents=1;fontSize=16;" vertex="1" parent="AGzMQhdN4DI56FehoSiP-152">
          <mxGeometry x="127" width="126" height="40" as="geometry">
            <mxRectangle width="126" height="40" as="alternateBounds" />
          </mxGeometry>
        </mxCell>
        <mxCell id="AGzMQhdN4DI56FehoSiP-155" value="Grade" style="shape=partialRectangle;html=1;whiteSpace=wrap;connectable=0;strokeColor=inherit;overflow=hidden;fillColor=none;top=0;left=0;bottom=0;right=0;pointerEvents=1;fontSize=16;" vertex="1" parent="AGzMQhdN4DI56FehoSiP-152">
          <mxGeometry x="253" width="126" height="40" as="geometry">
            <mxRectangle width="126" height="40" as="alternateBounds" />
          </mxGeometry>
        </mxCell>
        <mxCell id="AGzMQhdN4DI56FehoSiP-156" value="" style="endArrow=classic;html=1;rounded=0;" edge="1" parent="1">
          <mxGeometry width="50" height="50" relative="1" as="geometry">
            <mxPoint x="280" y="1560" as="sourcePoint" />
            <mxPoint x="279.67" y="1500" as="targetPoint" />
          </mxGeometry>
        </mxCell>
        <mxCell id="AGzMQhdN4DI56FehoSiP-157" value="" style="endArrow=none;html=1;rounded=0;" edge="1" parent="1">
          <mxGeometry width="50" height="50" relative="1" as="geometry">
            <mxPoint x="280" y="1560" as="sourcePoint" />
            <mxPoint x="1000" y="1560" as="targetPoint" />
          </mxGeometry>
        </mxCell>
        <mxCell id="AGzMQhdN4DI56FehoSiP-158" value="" style="endArrow=none;html=1;rounded=0;" edge="1" parent="1">
          <mxGeometry width="50" height="50" relative="1" as="geometry">
            <mxPoint x="1000" y="1560" as="sourcePoint" />
            <mxPoint x="1000" y="780" as="targetPoint" />
          </mxGeometry>
        </mxCell>
        <mxCell id="AGzMQhdN4DI56FehoSiP-159" value="" style="endArrow=none;html=1;rounded=0;" edge="1" parent="1">
          <mxGeometry width="50" height="50" relative="1" as="geometry">
            <mxPoint x="230" y="780" as="sourcePoint" />
            <mxPoint x="1002.5" y="780" as="targetPoint" />
          </mxGeometry>
        </mxCell>
        <mxCell id="AGzMQhdN4DI56FehoSiP-160" value="" style="endArrow=classic;html=1;rounded=0;" edge="1" parent="1">
          <mxGeometry width="50" height="50" relative="1" as="geometry">
            <mxPoint x="230" y="780" as="sourcePoint" />
            <mxPoint x="230" y="730" as="targetPoint" />
          </mxGeometry>
        </mxCell>
        <mxCell id="AGzMQhdN4DI56FehoSiP-161" value="" style="endArrow=classic;html=1;rounded=0;" edge="1" parent="1">
          <mxGeometry width="50" height="50" relative="1" as="geometry">
            <mxPoint x="399.1" y="1540" as="sourcePoint" />
            <mxPoint x="399.1" y="1500" as="targetPoint" />
          </mxGeometry>
        </mxCell>
        <mxCell id="AGzMQhdN4DI56FehoSiP-162" value="" style="endArrow=none;html=1;rounded=0;" edge="1" parent="1">
          <mxGeometry width="50" height="50" relative="1" as="geometry">
            <mxPoint x="400" y="1540" as="sourcePoint" />
            <mxPoint x="1080" y="1540" as="targetPoint" />
          </mxGeometry>
        </mxCell>
        <mxCell id="AGzMQhdN4DI56FehoSiP-163" value="" style="endArrow=none;html=1;rounded=0;" edge="1" parent="1">
          <mxGeometry width="50" height="50" relative="1" as="geometry">
            <mxPoint x="1080" y="1540" as="sourcePoint" />
            <mxPoint x="1080" y="1190" as="targetPoint" />
          </mxGeometry>
        </mxCell>
        <mxCell id="AGzMQhdN4DI56FehoSiP-164" value="" style="endArrow=none;html=1;rounded=0;" edge="1" parent="1">
          <mxGeometry width="50" height="50" relative="1" as="geometry">
            <mxPoint x="280" y="1190" as="sourcePoint" />
            <mxPoint x="1080" y="1190" as="targetPoint" />
          </mxGeometry>
        </mxCell>
        <mxCell id="AGzMQhdN4DI56FehoSiP-165" value="" style="endArrow=classic;html=1;rounded=0;" edge="1" parent="1">
          <mxGeometry width="50" height="50" relative="1" as="geometry">
            <mxPoint x="280" y="1190" as="sourcePoint" />
            <mxPoint x="279.68" y="1170" as="targetPoint" />
          </mxGeometry>
        </mxCell>
      </root>
    </mxGraphModel>
  </diagram>
</mxfile>
